HIERARCHY
ROOT Hips
{
	OFFSET -0.179506 -22.333345 2.821913
	CHANNELS 6 Xposition Yposition Zposition Zrotation Yrotation Xrotation 
	JOINT LeftUpLeg
	{
		OFFSET 6.951974 -9.140623 -0.681533
		CHANNELS 3 Zrotation Yrotation Xrotation
		JOINT LeftLeg
		{
			OFFSET 3.427654 -37.519855 -0.449580
			CHANNELS 3 Zrotation Yrotation Xrotation
			JOINT LeftFoot
			{
				OFFSET -1.359570 -39.796059 -4.369333
				CHANNELS 3 Zrotation Yrotation Xrotation
				JOINT LeftToe
				{
					OFFSET 2.635814 -5.579078 11.928840
					CHANNELS 3 Zrotation Yrotation Xrotation
					End Site
					{
						OFFSET 0.000000 0.000000 0.000000
					}
				}
			}
		}
	}
	JOINT RightUpLeg
	{
		OFFSET -6.767048 -9.052170 -0.431982
		CHANNELS 3 Zrotation Yrotation Xrotation
		JOINT RightLeg
		{
			OFFSET -3.829005 -38.256897 -0.885003
			CHANNELS 3 Zrotation Yrotation Xrotation
			JOINT RightFoot
			{
				OFFSET 1.577377 -39.841461 -4.231180
				CHANNELS 3 Zrotation Yrotation Xrotation
				JOINT RightToe
				{
					OFFSET -2.537174 -4.814398 12.334795
					CHANNELS 3 Zrotation Yrotation Xrotation
					End Site
					{
						OFFSET 0.000000 0.000000 0.000000
					}
				}
			}
		}
	}
	JOINT Spine
	{
		OFFSET -0.253288 10.896323 -2.669631
		CHANNELS 3 Zrotation Yrotation Xrotation
		JOINT Spine1
		{
			OFFSET 0.548704 13.518043 0.109247
			CHANNELS 3 Zrotation Yrotation Xrotation
			JOINT Spine2
			{
				OFFSET 0.145701 5.292222 2.542457
				CHANNELS 3 Zrotation Yrotation Xrotation
				JOINT Neck
				{
					OFFSET -0.277840 21.387037 -4.285703
					CHANNELS 3 Zrotation Yrotation Xrotation
					JOINT Head
					{
						OFFSET 0.515184 6.496960 5.134897
						CHANNELS 3 Zrotation Yrotation Xrotation
						End Site
						{
							OFFSET 0.000000 0.000000 0.000000
						}
					}
				}
				JOINT LeftShoulder
				{
					OFFSET 7.884473 12.174932 -3.408961
					CHANNELS 3 Zrotation Yrotation Xrotation
					JOINT LeftArm
					{
						OFFSET 9.097692 3.046888 -0.886815
						CHANNELS 3 Zrotation Yrotation Xrotation
						JOINT LeftForeArm
						{
							OFFSET 25.961220 -1.277207 -2.745643
							CHANNELS 3 Zrotation Yrotation Xrotation
							JOINT LeftHand
							{
								OFFSET 24.923361 0.898606 -0.117091
								CHANNELS 3 Zrotation Yrotation Xrotation
								End Site
								{
									OFFSET 0.000000 0.000000 0.000000
								}
							}
						}
					}
				}
				JOINT RightShoulder
				{
					OFFSET -8.175920 11.883285 -3.861528
					CHANNELS 3 Zrotation Yrotation Xrotation
					JOINT RightArm
					{
						OFFSET -9.601238 3.255117 -0.914307
						CHANNELS 3 Zrotation Yrotation Xrotation
						JOINT RightForeArm
						{
							OFFSET -25.374195 -1.332924 -2.140099
							CHANNELS 3 Zrotation Yrotation Xrotation
							JOINT RightHand
							{
								OFFSET -25.529810 0.777228 -0.555919
								CHANNELS 3 Zrotation Yrotation Xrotation
								End Site
								{
									OFFSET 0.000000 0.000000 0.000000
								}
							}
						}
					}
				}
			}
		}
	}
}
MOTION
Frames: 8
Frame Time: 0.033333
-0.179506 105.986282 2.821913 1.116629 -9.342680 -2.618662 2.411697 5.041266 -1.318420 -1.436986 -0.366775 -1.906942 -2.945123 7.486886 -6.216451 1.282867 2.465208 0.955537 -4.710403 -3.310166 -9.238823 -1.158470 1.002875 0.773716 9.162987 -5.732547 1.924164 2.154278 -2.540835 0.211611 -4.050109 1.938105 5.014809 2.218744 -4.199595 9.289658 -0.606908 0.177258 -6.940885 -0.190304 -6.312632 -4.648273 5.665658 -4.929654 -7.010716 -21.121694 -2.227985 3.837397 -12.027724 -3.258781 2.307747 17.848868 -62.347487 -10.056677 9.679915 -24.377046 17.110210 13.715720 7.601169 2.546077 20.344104 3.396635 2.194200 -28.613968 68.729538 -15.352013 -3.289182 14.052880 11.104252 
0.115005 106.026596 2.811506 0.968427 -9.502368 -2.242946 2.393233 4.932916 -1.903904 -1.521748 -0.401287 -1.571159 -2.793459 7.538989 -6.149135 1.396352 2.426663 0.932484 -4.737030 -3.315267 -9.873743 -1.152384 1.084444 1.103050 9.278877 -5.575260 2.333493 2.187905 -2.526222 0.257404 -4.019557 1.984584 5.307283 2.262332 -4.165458 9.243457 -0.602100 0.144189 -6.806926 -0.293999 -6.134342 -4.295078 5.641291 -5.081756 -6.758517 -20.842906 -2.223522 3.669833 -11.605101 -3.220606 1.793155 19.849853 -63.237836 -11.981875 9.833155 -23.911178 17.016276 13.406482 7.287957 2.430274 19.660798 2.951986 1.716372 -32.128459 69.594180 -18.836785 -3.649272 14.116701 10.375171 
0.447313 106.072113 2.444673 0.757805 -9.693728 -2.045059 2.373399 4.879992 -2.452367 -1.480302 -0.269710 -1.435200 -2.678605 7.595377 -5.821699 1.290757 2.479459 0.945200 -4.687143 -3.101096 -10.351252 -1.194841 1.501972 1.057898 9.280789 -5.646279 3.153898 2.239891 -2.564248 0.236707 -3.923431 1.954428 5.733945 2.319688 -4.045244 9.426356 -0.480384 0.124944 -6.684815 -0.569574 -5.996124 -3.579987 5.818151 -4.817891 -6.811714 -20.328778 -2.530700 3.494798 -10.889366 -3.227197 1.338215 22.200964 -64.564860 -14.551589 9.840357 -23.779592 16.252455 12.704221 7.218027 2.409682 18.454988 2.627990 0.792423 -37.164811 70.395580 -24.258706 -3.788322 14.421006 9.232966 
0.671715 106.124741 2.053644 0.577263 -9.665954 -1.797669 2.391263 4.762599 -3.195982 -1.442286 -0.162998 -1.107268 -2.777319 7.655864 -5.510231 1.288269 2.518496 0.920145 -4.599526 -2.949464 -10.948617 -1.251413 1.886289 1.196474 9.204558 -5.784472 3.662539 2.250477 -2.570658 0.253389 -3.696043 1.924183 6.303959 2.289871 -3.999062 9.440318 -0.287938 0.130124 -6.468148 -0.777970 -5.501655 -2.871965 5.929424 -4.314539 -6.560729 -19.497217 -3.050645 3.189481 -10.159858 -3.486387 0.820756 24.008526 -65.515660 -16.584488 9.974236 -23.478488 15.287458 11.727514 7.335582 2.240081 17.061341 2.692270 0.007178 -40.045830 70.844787 -27.495135 -3.967382 14.685226 8.201663 
0.841006 106.186096 1.669907 0.506605 -9.619885 -1.273488 2.222225 4.633211 -4.164885 -1.268192 0.227438 -0.944850 -2.958490 7.598546 -5.036672 1.123873 2.596018 0.947760 -4.528260 -2.781797 -11.932027 -1.404786 1.806729 1.436544 9.340441 -5.807109 3.703783 2.234374 -2.592217 0.234326 -3.476647 1.832183 7.146989 2.173233 -3.902163 9.377420 0.045556 0.115667 -6.220181 -1.225432 -5.219002 -1.869297 6.058960 -3.704011 -6.393753 -18.562153 -3.567196 2.885723 -8.836905 -3.619394 0.373195 26.177514 -67.028294 -19.353330 9.739092 -23.123580 14.375982 10.484938 7.510693 2.021818 15.329998 2.624285 -0.971493 -43.853688 71.453417 -31.931965 -3.833126 15.073436 7.517543 
0.984118 106.231644 1.165156 0.432949 -9.376858 -0.604037 2.104168 4.342742 -5.386065 -1.136511 0.522681 -0.829998 -3.207064 7.612195 -4.402030 1.069852 2.631570 0.894502 -4.377310 -2.554303 -13.118977 -1.637679 1.740503 1.616641 9.283573 -5.856229 3.121724 2.200607 -2.624416 0.201392 -3.111450 1.706549 8.275638 2.000038 -3.795849 9.361632 0.461906 0.077300 -5.950831 -1.747220 -4.963406 -1.082496 6.158538 -3.129532 -6.313091 -17.421024 -4.147519 2.494736 -7.465288 -3.952271 -0.006590 28.560472 -68.693950 -22.297189 9.501615 -22.916671 13.550946 8.924796 7.774553 1.729715 13.427316 2.703711 -1.958242 -48.372109 71.873555 -37.078064 -3.716016 15.378241 6.913166 
0.897359 106.247375 0.439353 0.499792 -8.805236 0.076518 1.985875 4.040880 -6.629418 -0.951859 0.651693 -1.109623 -3.587583 7.505233 -3.315897 0.899692 2.740409 0.898956 -4.128438 -2.385339 -14.496375 -1.807631 1.342048 1.795483 9.037817 -5.946492 1.922180 2.099431 -2.660139 0.223661 -2.674195 1.569869 9.656249 1.792401 -3.656328 9.235182 1.044107 0.069780 -5.706656 -2.402231 -4.609407 -0.162148 6.246166 -2.475592 -6.177079 -15.987308 -4.949238 1.949273 -5.713001 -4.421642 -0.439471 32.280873 -70.929030 -26.958718 9.035857 -22.751079 12.949810 7.169234 8.213421 1.356407 11.595774 2.863610 -3.115817 -54.430417 72.310021 -44.046034 -3.563703 15.622353 6.756702 
0.984374 106.220032 -0.276776 0.393193 -7.995842 0.851203 1.936285 3.584685 -8.075891 -0.766665 0.662826 -1.231207 -3.907300 7.369955 -2.447223 0.798654 2.808141 0.820171 -3.712036 -2.185223 -16.032191 -1.952939 0.832517 1.982717 8.624905 -6.145032 0.902586 2.139742 -2.701027 0.243852 -2.251948 1.463179 11.327111 1.611326 -3.605490 9.073667 1.683482 0.089401 -5.483307 -2.946830 -3.791725 0.494255 6.526988 -1.534909 -6.247026 -14.141659 -6.100916 1.271569 -4.476285 -5.266944 -0.830993 35.706943 -72.983042 -31.054991 8.006797 -22.596373 11.516602 4.999371 8.919102 0.807476 9.849862 3.359152 -4.330306 -59.867593 72.980871 -50.171144 -3.042437 15.732482 6.032697 
